HIERARCHY
ROOT Hips
{
	OFFSET 0.000000 0.000000 0.000000
	CHANNELS 6 Xposition Yposition Zposition Zrotation Yrotation Xrotation 
	JOINT LeftUpLeg_virtual
	{
		OFFSET 0.000000 0.000000 0.000000
		CHANNELS 3 Zrotation Yrotation Xrotation
		JOINT LeftUpLeg
		{
			OFFSET 10.205400 -3.823500 0.155100
			CHANNELS 3 Zrotation Yrotation Xrotation
			JOINT LeftLeg
			{
				OFFSET 0.708757 -12.982077 0.567790
				CHANNELS 3 Zrotation Yrotation Xrotation
				JOINT LeftFoot
				{
					OFFSET -0.708756 -10.717838 -2.184338
					CHANNELS 3 Zrotation Yrotation Xrotation
					JOINT LeftToeBase
					{
						OFFSET 0.108149 -7.191104 7.560241
						CHANNELS 3 Zrotation Yrotation Xrotation
						End Site
						{
							OFFSET 0.000000 0.000000 0.000000
						}
					}
				}
			}
		}
	}
	JOINT RightUpLeg_virtual
	{
		OFFSET 0.000000 0.000000 0.000000
		CHANNELS 3 Zrotation Yrotation Xrotation
		JOINT RightUpLeg
		{
			OFFSET -10.205400 -3.823500 0.005500
			CHANNELS 3 Zrotation Yrotation Xrotation
			JOINT RightLeg
			{
				OFFSET -0.708756 -12.982134 0.610632
				CHANNELS 3 Zrotation Yrotation Xrotation
				JOINT RightFoot
				{
					OFFSET 0.708754 -10.717769 -1.945823
					CHANNELS 3 Zrotation Yrotation Xrotation
					JOINT RightToeBase
					{
						OFFSET -0.108140 -7.191069 7.372968
						CHANNELS 3 Zrotation Yrotation Xrotation
						End Site
						{
							OFFSET 0.000000 0.000000 0.000000
						}
					}
				}
			}
		}
	}
	JOINT Spine_virtual
	{
		OFFSET 0.000000 0.000000 0.000000
		CHANNELS 3 Zrotation Yrotation Xrotation
		JOINT Spine
		{
			OFFSET 0.000000 6.876099 0.125700
			CHANNELS 3 Zrotation Yrotation Xrotation
			JOINT Spine1
			{
				OFFSET 0.000000 8.022060 0.146608
				CHANNELS 3 Zrotation Yrotation Xrotation
				JOINT Spine2
				{
					OFFSET 0.000000 9.168068 0.167552
					CHANNELS 3 Zrotation Yrotation Xrotation
					JOINT Neck_virtual
					{
						OFFSET 0.000000 0.000000 0.000000
						CHANNELS 3 Zrotation Yrotation Xrotation
						JOINT Neck
						{
							OFFSET 0.000000 10.314075 0.188496
							CHANNELS 3 Zrotation Yrotation Xrotation
							JOINT Head
							{
								OFFSET 0.000000 7.643700 -2.377400
								CHANNELS 3 Zrotation Yrotation Xrotation
								End Site
								{
									OFFSET 0.000000 0.000000 0.000000
								}
							}
						}
					}
					JOINT LeftShoulder_virtual
					{
						OFFSET 0.000000 0.000000 0.000000
						CHANNELS 3 Zrotation Yrotation Xrotation
						JOINT LeftShoulder
						{
							OFFSET 4.392200 8.824978 0.174984
							CHANNELS 3 Zrotation Yrotation Xrotation
							JOINT LeftArm
							{
								OFFSET 8.771219 -2.981674 -0.026999
								CHANNELS 3 Zrotation Yrotation Xrotation
								JOINT LeftForeArm
								{
									OFFSET 8.512804 0.000000 -0.000000
									CHANNELS 3 Zrotation Yrotation Xrotation
									JOINT LeftHand
									{
										OFFSET 18.484802 0.000000 -0.000000
										CHANNELS 3 Zrotation Yrotation Xrotation
										End Site
										{
											OFFSET 0.000000 0.000000 0.000000
										}
									}
								}
							}
						}
					}
					JOINT RightShoulder_virtual
					{
						OFFSET 0.000000 0.000000 0.000000
						CHANNELS 3 Zrotation Yrotation Xrotation
						JOINT RightShoulder
						{
							OFFSET -4.392200 8.824993 0.141379
							CHANNELS 3 Zrotation Yrotation Xrotation
							JOINT RightArm
							{
								OFFSET -8.771282 -2.981682 -0.094208
								CHANNELS 3 Zrotation Yrotation Xrotation
								JOINT RightForeArm
								{
									OFFSET -8.494598 0.000000 0.000000
									CHANNELS 3 Zrotation Yrotation Xrotation
									JOINT RightHand
									{
										OFFSET -18.483803 0.000000 0.000001
										CHANNELS 3 Zrotation Yrotation Xrotation
										End Site
										{
											OFFSET 0.000000 0.000000 0.000000
										}
									}
								}
							}
						}
					}
				}
			}
		}
	}
}
MOTION
Frames: 11
Frame Time: 0.033333
21.189383 31.640364 -12.643478 -179.280964 69.153924 -179.465201 -0.068146 1.857590 58.435253 -1.020916 -2.147326 -100.950749 0.019358 6.658897 61.464825 -7.651406 -0.289289 0.708724 0.000000 0.000000 0.000000 7.126491 -2.357955 63.209009 13.264428 -13.506072 -106.788833 1.320682 -4.495744 69.776065 -3.222794 3.715664 -0.391634 0.000000 0.000000 0.000000 5.854312 -0.293789 68.915639 0.969249 0.890433 18.493821 1.464278 -2.252418 0.054333 -0.034856 -0.047909 -0.038708 2.058446 -1.368138 2.540090 3.625178 -1.680059 10.641348 0.000000 0.000000 0.000000 2.324190 0.097770 -2.359294 -2.767849 -28.749581 1.478348 -3.050642 -31.719091 -19.213894 5.822979 -51.118112 -7.850836 0.000000 0.000000 0.000000 -0.514941 0.647564 -2.633512 17.246793 12.897898 0.852627 0.321675 47.168894 -29.466242 -4.914816 38.971605 -1.887489 0.000000 0.000000 0.000000 
21.216759 31.620398 -12.766896 -179.268301 69.076975 -179.555100 -0.080663 1.955110 58.495967 -0.899638 -2.280332 -100.929842 0.302841 7.004148 61.634589 -8.018643 -0.375862 0.638583 0.000000 0.000000 0.000000 7.085129 -2.216735 63.279551 12.690843 -13.699966 -106.610230 1.554223 -4.425697 70.018933 -3.213243 3.702046 -0.684530 0.000000 0.000000 0.000000 5.797876 -0.121392 69.014301 0.966422 0.911308 18.611425 1.496915 -2.325221 0.059752 0.016400 0.058365 0.000311 2.005164 -1.373216 2.500869 3.533295 -1.637653 10.726285 0.000000 0.000000 0.000000 2.284307 0.094513 -2.417102 -2.930976 -28.922463 1.553995 -2.752350 -31.981739 -18.721479 5.931208 -50.926751 -7.921435 0.000000 0.000000 0.000000 -0.576947 0.682531 -2.704816 17.128088 13.099560 0.960805 1.497123 47.928295 -27.471070 -4.865671 39.725524 -1.766489 0.000000 0.000000 0.000000 
21.258129 31.616327 -12.886118 -179.391613 68.970683 -179.547355 -0.168086 1.967049 58.553818 -0.874850 -2.384170 -101.004653 0.557339 7.328561 61.765530 -8.175506 -0.357880 0.575451 0.000000 0.000000 0.000000 7.095255 -2.087541 63.341590 12.128708 -13.991673 -106.532639 2.037194 -4.482963 70.138489 -3.435313 3.457273 -0.800196 0.000000 0.000000 0.000000 5.724277 0.048622 68.990525 0.933368 0.915002 18.590247 1.528062 -2.401712 0.000217 -0.023460 0.019872 -0.022571 2.064699 -1.405754 2.577410 3.504002 -1.676480 10.748309 0.000000 0.000000 0.000000 2.356757 0.104998 -2.345948 -2.980563 -29.004682 1.537623 -2.347746 -32.168487 -18.715750 5.946365 -50.651334 -7.912742 0.000000 0.000000 0.000000 -0.526876 0.754160 -2.678705 17.092658 13.166617 1.112705 2.568939 48.812862 -25.353409 -4.852875 40.865165 -1.570570 0.000000 0.000000 0.000000 
21.291351 31.613035 -13.014671 -179.479640 68.884247 -179.677087 -0.228239 1.924100 58.765500 -0.902773 -2.575697 -101.061316 0.712730 7.510438 61.895536 -8.117906 -0.293169 0.423618 0.000000 0.000000 0.000000 7.059802 -2.149169 63.556290 11.424086 -14.223233 -106.460103 2.414033 -4.526818 70.094434 -3.364467 3.504379 -0.825010 0.000000 0.000000 0.000000 5.619764 0.139306 69.125558 0.898568 0.911846 18.610353 1.587656 -2.438953 0.021144 0.000954 0.025465 -0.025911 2.040225 -1.356683 2.616530 3.552961 -1.726608 10.780175 0.000000 0.000000 0.000000 2.291954 0.046151 -2.376194 -2.925791 -29.043443 1.555662 -1.935446 -32.283019 -19.149800 6.060601 -50.491880 -8.051822 0.000000 0.000000 0.000000 -0.582320 0.653703 -2.636348 17.200877 13.222438 1.303187 2.924781 49.439197 -24.385608 -4.791682 41.873233 -1.301614 0.000000 0.000000 0.000000 
21.294924 31.598631 -13.137936 -179.582025 68.841149 -179.694067 -0.374998 1.911022 58.956274 -1.050939 -2.712394 -101.253060 0.875826 7.679572 62.108734 -7.949292 -0.270182 0.260363 0.000000 0.000000 0.000000 6.982093 -2.201085 63.689301 11.026777 -14.289697 -106.591147 2.537988 -4.319885 70.098074 -3.230221 3.634582 -0.750317 0.000000 0.000000 0.000000 5.531394 0.179662 69.225463 0.820842 0.906400 18.571510 1.610574 -2.487249 -0.004356 0.000887 0.017963 -0.021099 2.059201 -1.384187 2.698391 3.643519 -1.836726 10.828867 0.000000 0.000000 0.000000 2.319001 -0.015139 -2.303150 -2.776973 -29.097825 1.508243 -1.729969 -32.517059 -19.811881 6.202804 -50.443935 -8.281375 0.000000 0.000000 0.000000 -0.544011 0.565140 -2.530343 17.297089 13.116133 1.375286 2.462541 49.634322 -24.762023 -4.914286 42.226265 -1.150449 0.000000 0.000000 0.000000 
21.268698 31.560659 -13.278914 -179.277685 68.999309 -179.577571 -0.354411 1.938827 59.193192 -1.225494 -2.913498 -101.396658 1.084539 7.811136 62.503252 -7.788278 -0.269701 0.051193 0.000000 0.000000 0.000000 6.883148 -2.162004 63.958062 10.970258 -14.028094 -106.704815 2.402502 -3.613486 70.074852 -2.886294 4.019749 -0.746870 0.000000 0.000000 0.000000 5.592511 0.225038 69.423935 0.836633 0.943476 18.640595 1.496614 -2.509763 0.036693 0.017847 0.017507 -0.011103 2.061157 -1.542004 2.704473 3.779663 -1.937309 10.841273 0.000000 0.000000 0.000000 2.397399 -0.046395 -2.313347 -2.526220 -29.208310 1.401292 -1.802453 -32.867413 -20.469612 6.248473 -50.489390 -8.416390 0.000000 0.000000 0.000000 -0.500890 0.567731 -2.560959 17.442316 12.975072 1.659073 0.953973 49.309670 -26.683170 -5.090843 41.752502 -1.082296 0.000000 0.000000 0.000000 
21.224684 31.509785 -13.444892 -179.658892 68.846681 -179.814975 -0.679934 1.887289 59.178221 -1.699307 -3.142176 -101.703286 1.365479 7.854418 63.262271 -7.498718 -0.239063 -0.101296 0.000000 0.000000 0.000000 6.564832 -2.299383 63.985731 10.798410 -13.994721 -106.844328 2.274125 -3.214323 70.140353 -2.685341 4.260730 -0.790991 0.000000 0.000000 0.000000 5.461680 0.018870 69.378978 0.789112 0.989525 18.661023 1.608439 -2.513017 0.018911 -0.006692 0.025239 -0.036674 2.037185 -1.493560 2.745788 3.977559 -2.095289 10.737216 0.000000 0.000000 0.000000 2.301760 -0.182143 -2.276899 -2.281869 -29.239101 1.311698 -2.232059 -33.133357 -20.905382 6.263202 -50.387142 -8.525496 0.000000 0.000000 0.000000 -0.547149 0.460688 -2.427076 17.562884 12.959840 1.740201 -0.935854 48.797819 -29.126505 -5.017235 40.625088 -0.602445 0.000000 0.000000 0.000000 
21.192703 31.458321 -13.618394 -179.477045 68.865300 -179.693562 -0.777798 1.930587 59.029637 -2.156079 -3.396138 -101.877660 1.698277 7.783299 64.107725 -7.338793 -0.164100 -0.234846 0.000000 0.000000 0.000000 6.384216 -2.200990 63.960248 10.616517 -13.945937 -106.825846 2.425356 -2.940905 70.264157 -2.910165 4.099319 -0.772346 0.000000 0.000000 0.000000 5.406580 -0.051655 69.363262 0.807347 1.051591 18.743084 1.592431 -2.467415 0.026582 0.006989 0.066819 0.009957 1.985725 -1.455942 2.703660 4.123027 -2.210055 10.689175 0.000000 0.000000 0.000000 2.218621 -0.165672 -2.273530 -1.993038 -29.338958 1.205762 -2.841734 -33.347955 -21.183958 6.295922 -50.033998 -8.723211 0.000000 0.000000 0.000000 -0.604094 0.432449 -2.479998 17.693667 13.079216 1.956473 -2.710730 48.215357 -31.115702 -5.063992 39.284823 -0.353622 0.000000 0.000000 0.000000 
21.186722 31.422237 -13.794077 -179.638565 68.928746 -179.837365 -1.067951 2.079957 58.763922 -2.491867 -3.524873 -101.961590 1.884501 7.769192 64.984271 -7.110696 -0.147090 -0.269734 0.000000 0.000000 0.000000 6.184556 -2.079536 63.896638 10.437517 -13.986604 -106.776040 2.329886 -2.776267 70.558122 -2.986464 4.030904 -0.874916 0.000000 0.000000 0.000000 5.340602 -0.056773 69.221385 0.791183 1.122834 18.824749 1.565248 -2.522772 0.072770 -0.003416 0.001905 -0.033145 1.947255 -1.438243 2.749033 4.205857 -2.291531 10.616596 0.000000 0.000000 0.000000 2.180484 -0.005582 -2.193494 -1.653294 -29.403104 1.013178 -3.474419 -33.409662 -21.309009 6.179961 -49.475069 -8.722507 0.000000 0.000000 0.000000 -0.611366 0.499014 -2.370906 17.644600 13.396923 2.176847 -3.765241 47.980597 -32.109095 -5.058417 38.380940 -0.013549 0.000000 0.000000 0.000000 
21.217295 31.400627 -13.957028 -179.379045 68.956634 -179.558652 -1.203918 2.198982 58.531415 -2.315977 -3.409240 -101.984287 1.521740 8.246022 65.637831 -6.347979 -0.062421 -0.336053 0.000000 0.000000 0.000000 6.091577 -2.065418 63.582695 10.208338 -14.060703 -106.450363 2.283065 -2.728431 70.849088 -3.044855 3.938306 -0.866103 0.000000 0.000000 0.000000 5.258415 -0.065431 69.174838 0.725541 1.187252 18.862980 1.557276 -2.487130 0.086778 -0.000888 0.026390 -0.043683 1.913776 -1.380352 2.764614 4.212606 -2.296894 10.547577 0.000000 0.000000 0.000000 2.123046 0.042995 -2.133994 -1.301371 -29.436555 0.905450 -3.982461 -33.369559 -21.334250 6.136493 -48.837963 -8.852287 0.000000 0.000000 0.000000 -0.652904 0.534389 -2.361940 17.605202 13.778213 2.328484 -4.147434 47.984562 -32.020849 -5.087676 38.218774 0.146234 0.000000 0.000000 0.000000 
21.258076 31.376839 -14.098805 -179.303708 69.006829 -179.567996 -1.374492 2.252682 58.508206 -2.354814 -3.294073 -101.979840 1.344873 8.492374 66.161952 -5.927589 0.094994 -0.501861 0.000000 0.000000 0.000000 5.970304 -2.168082 63.469328 10.088039 -14.283446 -106.363995 2.283475 -2.713080 71.134310 -3.091111 3.865203 -0.816201 0.000000 0.000000 0.000000 5.161644 -0.076131 69.260413 0.593512 1.176423 18.860408 1.566767 -2.479523 0.126342 0.002866 0.017505 -0.051609 1.927289 -1.413508 2.765991 4.134579 -2.209584 10.512893 0.000000 0.000000 0.000000 2.153173 0.044509 -2.115537 -0.911717 -29.415224 0.776873 -4.242845 -33.379978 -21.330013 6.041488 -48.384374 -8.817189 0.000000 0.000000 0.000000 -0.621707 0.579504 -2.373439 17.421560 14.085092 2.556631 -3.856456 48.028234 -31.076947 -5.126858 38.851311 0.170362 0.000000 0.000000 0.000000 
